PathFileType	4	(X/Y/Z)	/Users/niels/Desktop/University/Third Semester/Perception and Action/Exam/Gymnastics Motion Tracking/Code for Gym Tracking/Analyzed Data/Webcam_Backflip/id13_2_trajectory_Sports2D/id13_2_trajectory_Sports2D_px_person00.trc
DataRate	CameraRate	NumFrames	NumMarkers	Units	OrigDataRate	OrigDataStartFrame	OrigNumFrames
29.714285714285715	29.714285714285715	7	22	m	29.714285714285715	65	105
Frame#	Time	Hip			RHip			RKnee			RAnkle			RBigToe			RSmallToe			RHeel			LHip			LKnee			LAnkle			LBigToe			LSmallToe			LHeel			Neck			Head			Nose			RShoulder			RElbow			RWrist			LShoulder			LElbow			LWrist		
		X1	Y1	Z1	X2	Y2	Z2	X3	Y3	Z3	X4	Y4	Z4	X5	Y5	Z5	X6	Y6	Z6	X7	Y7	Z7	X8	Y8	Z8	X9	Y9	Z9	X10	Y10	Z10	X11	Y11	Z11	X12	Y12	Z12	X13	Y13	Z13	X14	Y14	Z14	X15	Y15	Z15	X16	Y16	Z16	X17	Y17	Z17	X18	Y18	Z18	X19	Y19	Z19	X20	Y20	Z20	X21	Y21	Z21	X22	Y22	Z22
65	2.1875	0.9422134428491734	-0.6148896049204885	0.0	0.9290257972522609	-0.62074621939814	0.0	1.1621680532507666	-0.6402135080764557	0.0	1.361033739521049	-0.7817802582793661	0.0	1.4535767171059368	-0.7061783348142177	0.0	1.4641461140503045	-0.7290028567064869	0.0	1.3856127385795334	-0.8209168824864812	0.0	0.9601261055109942	-0.6278733219697524	0.0	0.9596281001072191	-0.8748837412900483	0.0	0.9252869189863698	-1.068639258325675	0.0	1.0105914620124086	-0.8283844633486067	0.0	1.125541881776038	-1.0039887252698405	0.0	0.9146206401774121	-1.077402391050787	0.0	0.9388901705807144	-0.3345994894023767	0.0	0.9898697297862414	-0.1963421838618737	0.0	0.9870177579392175	-0.28478720560842774	0.0	0.8747969251016596	-0.3797737554859985	0.0	0.8171913655517199	-0.5375455710470962	0.0	0.8250351196994785	-0.6884018505503627	0.0	0.9695123813087644	-0.38342240921136067	0.0	1.0101606624842	-0.5117444224364064	0.0	1.1086027196734825	-0.5634401693343138	0.0
66	2.2211538461538463	0.9423937761414524	-0.6154630420229739	0.0	0.9288994190387196	-0.6215172167365375	0.0	1.1608256702684299	-0.6455621756463457	0.0	1.3550090362815685	-0.7954908485758425	0.0	1.4505929264163786	-0.7237891097064126	0.0	1.4582735339252455	-0.7464370605105677	0.0	1.3775244443118078	-0.83475664248776	0.0	0.9601969775644742	-0.628247041298797	0.0	0.9602493055220105	-0.8735742219187818	0.0	0.9251487119420126	-1.0687162478155843	0.0	1.0337161067209568	-0.787499348328327	0.0	1.189353221712986	-0.9877375589918995	0.0	0.9139742541527406	-1.068370920561645	0.0	0.9391915678047327	-0.3353726034727381	0.0	0.9911455058376	-0.1975494784350296	0.0	0.9873321798283832	-0.28674514917947175	0.0	0.8753627249875615	-0.3806002006104585	0.0	0.8193621079584292	-0.5396445546899924	0.0	0.8351431826067036	-0.6895035732527541	0.0	0.9683095152567235	-0.3831744102474312	0.0	1.0070894318521348	-0.5117192092620837	0.0	1.101883044816545	-0.5714313721513198	0.0
67	2.254807692307692	0.9430232395924464	-0.616031890360881	0.0	0.9289684889254521	-0.6222940656610576	0.0	1.1588996267297125	-0.6553304723519968	0.0	1.3447186952208248	-0.8174572341176098	0.0	1.4448728719903454	-0.7512614472003009	0.0	1.449333454442237	-0.7739630416157015	0.0	1.3645376612781797	-0.8567636932437281	0.0	0.9605772304200995	-0.6281112840559604	0.0	0.9603677809791578	-0.8721289854265809	0.0	0.9252391327947368	-1.0685029824621737	0.0	1.0745533409227122	-0.7696874904942975	0.0	1.2402927082480228	-0.9878460720748163	0.0	0.9132766159578081	-1.056146535640904	0.0	0.9397448354716396	-0.33560396851399593	0.0	0.9924071475969706	-0.19809829308293483	0.0	0.9877426416418313	-0.2881434362890634	0.0	0.8761945480366391	-0.381217847100232	0.0	0.821225188991271	-0.5412767496672892	0.0	0.8439163261625878	-0.6895861049123343	0.0	0.967727029051378	-0.3828728019866373	0.0	1.0041462708857856	-0.5120410534929601	0.0	1.0948791131640274	-0.5803785891293773	0.0
68	2.2884615384615383	0.9440497933231078	-0.6164702716249963	0.0	0.9291940269011656	-0.6229221404136573	0.0	1.1559786162740315	-0.6691093202312163	0.0	1.3296981696420842	-0.8460731775972605	0.0	1.4352974005169634	-0.7867982759775555	0.0	1.436744882667213	-0.8094725456484058	0.0	1.345962134107939	-0.8853148330192996	0.0	0.9613920184925767	-0.6275697580322043	0.0	0.9599572743693471	-0.8707447967110976	0.0	0.9255625105854243	-1.0677797022488285	0.0	1.1325706611075452	-0.7811887815029136	0.0	1.2754324274877313	-1.003470712845076	0.0	0.9127114699349657	-1.0443551151034276	0.0	0.9405480496122189	-0.33521897478927093	0.0	0.9937546867640585	-0.1978789825994104	0.0	0.988390492890966	-0.28878751276591047	0.0	0.8771274102505593	-0.38153629415733825	0.0	0.8225844995170222	-0.5422271121255741	0.0	0.8511456135199843	-0.6886017582490332	0.0	0.9679605937559383	-0.38267423582565624	0.0	1.0016875479189051	-0.5129670445102541	0.0	1.087637804595639	-0.5901515580897919	0.0
69	2.3221153846153846	0.9453748012980379	-0.6168183625662483	0.0	0.9294616804118249	-0.6234513583775452	0.0	1.1514219566535497	-0.6864513749597029	0.0	1.3092196213466705	-0.8792779841632725	0.0	1.4204259433460695	-0.8284768731550934	0.0	1.4191868111200137	-0.8506552432946853	0.0	1.3208790783253135	-0.9184076939780057	0.0	0.9626924633225359	-0.6269140400102751	0.0	0.959104664344808	-0.8695516016243466	0.0	0.9261617719470554	-1.0664863284194335	0.0	1.1977749043023391	-0.8186449062906987	0.0	1.2956386205409087	-1.0249576189574485	0.0	0.9124713877677342	-1.0391262852383487	0.0	0.941543554073379	-0.33434253415271226	0.0	0.9952316646962461	-0.19693765262881638	0.0	0.9893174784889783	-0.2886751892263353	0.0	0.8779872350589332	-0.3815035897019367	0.0	0.8233279508882001	-0.542450232556869	0.0	0.8567997926332934	-0.6867621890258208	0.0	0.9690414783741081	-0.3827026058723974	0.0	0.9998176199514442	-0.5147137082423964	0.0	1.0799786782136316	-0.6006078437570027	0.0
70	2.355769230769231	0.9468746190407014	-0.6172955322494109	0.0	0.9296030977762463	-0.6240305833047002	0.0	1.1444835990866995	-0.7067854379867438	0.0	1.282559365162748	-0.9147601329015932	0.0	1.3984793705273433	-0.8741969802622448	0.0	1.394749881440926	-0.89516792543813	0.0	1.2886221842059777	-0.9535639541810935	0.0	0.9644444663828282	-0.6264053892809194	0.0	0.9579672043839407	-0.8686240829128457	0.0	0.926996524650638	-1.0648840576953131	0.0	1.2509086767899305	-0.8735912578167451	0.0	1.2946632742082014	-1.042960157033429	0.0	0.9125997286030664	-1.0438213986597284	0.0	0.9426838275384593	-0.3332542888740621	0.0	0.996836453641308	-0.19550134824483983	0.0	0.9904900677401886	-0.2879927646618661	0.0	0.8786920229112091	-0.3810853490712267	0.0	0.8234985608519495	-0.5419888303944138	0.0	0.8610050631672688	-0.6844013989530527	0.0	0.9708444737545365	-0.3829453377483664	0.0	0.9984425236704102	-0.5173565674384528	0.0	1.0717297267503165	-0.6114750051414605	0.0
71	2.3894230769230766	0.9483950657276186	-0.6182042944654381	0.0	0.9295225597253605	-0.624848391972193	0.0	1.1344317526035033	-0.7293837276912729	0.0	1.2494021423683848	-0.9501557557602344	0.0	1.36756139964596	-0.9213778460713457	0.0	1.3614056635191087	-0.9403790985497248	0.0	1.2493251401593688	-0.9878030614248218	0.0	0.9665406074944499	-0.6262434829114257	0.0	0.9567020529159185	-0.8680704667317266	0.0	0.9278609530408446	-1.0634768725988	0.0	1.273140726723811	-0.9353152654556507	0.0	1.2643620835116907	-1.0546515050087897	0.0	0.9129226704598077	-1.0550399406049222	0.0	0.9439943902340472	-0.3322351785943507	0.0	0.9985803795068615	-0.19398290113489475	0.0	0.9919201982770478	-0.28702790622237784	0.0	0.8792690406575346	-0.38031639740402023	0.0	0.8232757169135633	-0.5409798298503864	0.0	0.8640335919599282	-0.6818425083821185	0.0	0.9731190717208948	-0.3831911777367595	0.0	0.9973535788760168	-0.5206778680067691	0.0	1.0628940496734662	-0.6222532965409107	0.0
